<svg width="66" height="31" viewBox="0 0 66 31" fill="none" xmlns="http://www.w3.org/2000/svg">
<g clip-path="url(#clip0_766_38596)">
<path d="M62.8405 21.0851L4.32599 30.3114C2.05446 30.6694 0 28.9141 0 26.6135V12.9706C0 11.1281 1.34001 9.55992 3.16032 9.27278L61.674 0.0465032C63.9455 -0.311575 66 1.44378 66 3.74436V17.3872C66 19.2297 64.66 20.7979 62.8397 21.0851H62.8405Z" fill="#D9DFEB"/>
<path d="M5.70117 13.9822L9.37254 13.4045C12.6986 12.8798 15.036 14.8488 15.036 18.1877C15.036 21.5266 12.6986 24.2323 9.37254 24.757L5.70117 25.3364V13.9822ZM12.7585 18.5458C12.7585 16.27 11.4398 15.0539 9.32554 15.3872L7.97783 15.6153V22.9854L9.32554 22.788C11.439 22.4539 12.7585 20.8233 12.7585 18.5458Z" fill="#A0ACBE"/>
<path d="M15.787 20.0605C15.787 17.86 17.2851 16.0798 19.4131 15.7457C21.7803 15.3722 22.5452 17.1968 22.5759 17.2532C23.0246 18.0651 22.905 19.4324 22.905 19.7025L17.9149 20.4896C18.1098 21.1339 18.7986 21.4288 19.4284 21.3296C20.2224 21.204 20.6274 20.81 20.7761 20.4878L22.6494 20.8963C22.3059 21.8048 21.2556 22.9141 19.4122 23.2055C17.2842 23.5396 15.7861 22.2492 15.7861 20.0614L15.787 20.0605ZM20.8214 18.6966C20.642 17.9164 20.1771 17.4797 19.4131 17.601C18.6636 17.7181 18.1098 18.271 17.9303 19.1521L20.8223 18.6958L20.8214 18.6966Z" fill="#A0ACBE"/>
<path d="M28.2113 21.8218L26.338 22.1167L23.1914 15.1679L25.6638 14.779L27.2661 18.9298L28.9446 14.2612L31.4477 13.8672L28.2122 21.8218H28.2113Z" fill="#A0ACBE"/>
<path d="M32.7684 9.71694L37.3235 8.99822C39.6454 8.63245 41.2803 9.94683 41.2803 12.1936C41.2803 14.4403 39.6463 16.2709 37.3235 16.6366L35.0459 16.9964V20.7114L32.7676 21.0703V9.71694H32.7684ZM39.0019 12.5542C39.0019 11.4603 38.2823 10.7946 37.2483 10.9578L35.0468 11.3039V15.0505L37.2483 14.7027C38.2823 14.5395 39.0019 13.6464 39.0019 12.5534V12.5542Z" fill="#A0ACBE"/>
<path d="M44.6739 8.1875V15.6319L42.3955 15.9917V8.54729L44.6739 8.1875Z" fill="#A0ACBE"/>
<path d="M50.8382 15.2212L52.3064 16.5937C51.6928 17.4081 50.5228 18.1037 49.5648 18.255C47.3625 18.6011 45.8037 17.3047 45.8037 15.1178C45.8037 12.9308 47.3625 11.1268 49.5648 10.7798C50.6442 10.6089 51.6483 10.9302 52.3064 11.5754L50.8382 13.3949C50.4331 13.0402 49.9391 12.8616 49.5212 12.9274C48.6068 13.071 48.0821 13.7393 48.0821 14.7597C48.0821 15.7801 48.6068 16.2621 49.5212 16.1185C49.94 16.0527 50.4493 15.704 50.8382 15.222V15.2212Z" fill="#A0ACBE"/>
<path d="M55.59 12.072L57.5376 9.53386L60.6099 9.0493L57.6146 12.9061L60.3262 16.5527L57.5992 16.9834L55.9806 14.811L55.59 15.3383V17.3005L53.3125 17.6594V6.69487L55.59 6.33594V12.072Z" fill="#A0ACBE"/>
<path d="M43.5351 16.8999C44.2239 16.7914 44.7178 17.2084 44.7178 17.8972C44.7178 18.586 44.2239 19.1586 43.5351 19.2672C42.8463 19.3757 42.3506 18.9595 42.3506 18.2707C42.3506 17.5819 42.8454 17.0084 43.5351 16.8999Z" fill="#A0ACBE"/>
</g>
<defs>
<clipPath id="clip0_766_38596">
<rect width="66" height="30.3571" fill="white"/>
</clipPath>
</defs>
</svg>
