<svg width="20" height="20" viewBox="0 0 20 20" fill="none" xmlns="http://www.w3.org/2000/svg">
<mask id="mask0_343_12670" style="mask-type:luminance" maskUnits="userSpaceOnUse" x="0" y="0" width="20" height="20">
<path d="M20 0H0V20H20V0Z" fill="white"/>
</mask>
<g mask="url(#mask0_343_12670)">
<path d="M19.6 10.2291C19.6 9.51999 19.5364 8.83819 19.4182 8.18359H10V12.0518H15.3818C15.15 13.3018 14.4455 14.3609 13.3864 15.07V17.5791H16.6182C18.5091 15.8382 19.6 13.2745 19.6 10.2291Z" fill="#4285F4"/>
<path d="M9.99988 19.9984C12.6999 19.9984 14.9635 19.1029 16.618 17.5757L13.3862 15.0666C12.4908 15.6666 11.3453 16.0211 9.99988 16.0211C7.39528 16.0211 5.19078 14.262 4.40438 11.8984H1.06348V14.4893C2.70898 17.7575 6.09078 19.9984 9.99988 19.9984Z" fill="#34A853"/>
<path d="M4.4045 11.8987C4.2045 11.2987 4.0909 10.6578 4.0909 9.99871C4.0909 9.33961 4.2045 8.69871 4.4045 8.09871V5.50781H1.0636C0.3864 6.85781 0 8.38511 0 9.99871C0 11.6123 0.3864 13.1396 1.0636 14.4896L4.4045 11.8987Z" fill="#FBBC04"/>
<path d="M9.99988 3.9773C11.468 3.9773 12.7862 4.4818 13.8226 5.4727L16.6908 2.6045C14.959 0.9909 12.6953 0 9.99988 0C6.09078 0 2.70898 2.2409 1.06348 5.5091L4.40438 8.1C5.19078 5.7364 7.39528 3.9773 9.99988 3.9773Z" fill="#E94235"/>
</g>
</svg>
