<svg width="16" height="16" viewBox="0 0 16 16" fill="none" xmlns="http://www.w3.org/2000/svg">
<path fill-rule="evenodd" clip-rule="evenodd" d="M1.89062 7.99392C1.89062 4.61885 4.62666 1.88281 8.00174 1.88281C11.3768 1.88281 14.1128 4.61885 14.1128 7.99392C14.1128 11.369 11.3768 14.105 8.00174 14.105C4.62666 14.105 1.89062 11.369 1.89062 7.99392ZM3.15067 8.60504C3.35728 10.2619 4.39303 11.6614 5.82961 12.375C5.7899 12.2954 5.75164 12.2141 5.71481 12.1312C5.29328 11.1828 5.02345 9.95194 4.9604 8.60504H3.15067ZM4.9604 7.38281H3.15067C3.35728 5.72591 4.39303 4.32649 5.82961 3.61286C5.7899 3.69245 5.75164 3.77378 5.71481 3.85664C5.29328 4.80509 5.02345 6.03591 4.9604 7.38281ZM6.18409 8.60504C6.24623 9.8068 6.48858 10.8628 6.83169 11.6348C7.03213 12.0858 7.25497 12.4129 7.47154 12.619C7.68496 12.8221 7.86307 12.8828 8.00174 12.8828C8.1404 12.8828 8.31851 12.8221 8.53193 12.619C8.74851 12.4129 8.97135 12.0858 9.17178 11.6348C9.51489 10.8628 9.75724 9.8068 9.81938 8.60504H6.18409ZM9.81938 7.38281H6.18409C6.24623 6.18104 6.48858 5.12504 6.83169 4.35303C7.03213 3.90206 7.25497 3.57493 7.47154 3.36883C7.68496 3.16572 7.86307 3.10503 8.00174 3.10503C8.1404 3.10503 8.31851 3.16572 8.53193 3.36883C8.74851 3.57493 8.97135 3.90206 9.17178 4.35303C9.51489 5.12504 9.75724 6.18104 9.81938 7.38281ZM11.0431 8.60504C10.98 9.95194 10.7102 11.1828 10.2887 12.1312C10.2518 12.2141 10.2136 12.2954 10.1739 12.375C11.6104 11.6614 12.6462 10.2619 12.8528 8.60504H11.0431ZM12.8528 7.38281H11.0431C10.98 6.03591 10.7102 4.80509 10.2887 3.85664C10.2518 3.77378 10.2136 3.69245 10.1739 3.61286C11.6104 4.32649 12.6462 5.72591 12.8528 7.38281Z" fill="#DCDFE4"/>
</svg>
