<svg width="60" height="28" viewBox="0 0 60 28" fill="none" xmlns="http://www.w3.org/2000/svg">
<g clip-path="url(#clip0_858_58991)">
<path d="M57.1278 19.1683L3.93272 27.5558C1.86769 27.8813 0 26.2855 0 24.1941V11.7915C0 10.1165 1.2182 8.69084 2.87301 8.4298L56.0673 0.0422757C58.1323 -0.28325 60 1.31252 60 3.40397V15.8066C60 17.4816 58.7818 18.9072 57.127 19.1683H57.1278Z" fill="#11FFB7"/>
<path d="M5.18213 12.715L8.51974 12.1898C11.5435 11.7128 13.6683 13.5028 13.6683 16.5382C13.6683 19.5736 11.5435 22.0332 8.51974 22.5103L5.18213 23.037V12.715ZM11.5979 16.8637C11.5979 14.7948 10.3991 13.6892 8.47701 13.9922L7.25182 14.1997V20.8997L8.47701 20.7203C10.3983 20.4165 11.5979 18.9342 11.5979 16.8637Z" fill="black"/>
<path d="M14.3504 18.2418C14.3504 16.2413 15.7123 14.623 17.6468 14.3192C19.7989 13.9797 20.4942 15.6384 20.5222 15.6897C20.93 16.4277 20.8213 17.6708 20.8213 17.9163L16.2849 18.6318C16.462 19.2176 17.0882 19.4857 17.6608 19.3955C18.3826 19.2813 18.7508 18.9232 18.886 18.6303L20.589 19.0017C20.2767 19.8275 19.3218 20.8359 17.646 21.1009C15.7115 21.4046 14.3496 20.2315 14.3496 18.2426L14.3504 18.2418ZM18.9272 17.0019C18.764 16.2926 18.3414 15.8956 17.6468 16.0059C16.9655 16.1123 16.462 16.615 16.2989 17.416L18.9279 17.0011L18.9272 17.0019Z" fill="black"/>
<path d="M25.6463 19.8369L23.9433 20.105L21.0828 13.7879L23.3304 13.4344L24.7871 17.2079L26.3129 12.9636L28.5885 12.6055L25.6471 19.8369H25.6463Z" fill="black"/>
<path d="M29.7884 8.83749L33.9293 8.18411C36.0402 7.85159 37.5264 9.04648 37.5264 11.089C37.5264 13.1315 36.0409 14.7956 33.9293 15.1281L31.8588 15.4552V18.8324L29.7876 19.1587V8.83749H29.7884ZM35.4552 11.4168C35.4552 10.4224 34.801 9.81717 33.8609 9.96556L31.8596 10.2802V13.6862L33.8609 13.37C34.801 13.2216 35.4552 12.4097 35.4552 11.4161V11.4168Z" fill="black"/>
<path d="M40.6127 7.44531V14.213L38.5415 14.5401V7.77239L40.6127 7.44531Z" fill="black"/>
<path d="M46.2167 13.8367L47.5514 15.0844C46.9936 15.8248 45.93 16.4572 45.0591 16.5947C43.057 16.9094 41.6399 15.7308 41.6399 13.7427C41.6399 11.7546 43.057 10.1145 45.0591 9.79912C46.0403 9.64373 46.9532 9.93585 47.5514 10.5224L46.2167 12.1765C45.8484 11.854 45.3994 11.6917 45.0195 11.7515C44.1882 11.882 43.7111 12.4896 43.7111 13.4172C43.7111 14.3448 44.1882 14.783 45.0195 14.6525C45.4001 14.5927 45.8632 14.2757 46.2167 13.8375V13.8367Z" fill="black"/>
<path d="M50.536 10.9763L52.3066 8.66892L55.0996 8.22841L52.3765 11.7346L54.8417 15.0497L52.3626 15.4412L50.8911 13.4663L50.536 13.9457V15.7295L48.4656 16.0558V6.08802L50.536 5.76172V10.9763Z" fill="black"/>
<path d="M39.5761 15.3632C40.2023 15.2645 40.6513 15.6437 40.6513 16.2699C40.6513 16.896 40.2023 17.4166 39.5761 17.5152C38.9499 17.6139 38.4993 17.2356 38.4993 16.6094C38.4993 15.9832 38.9491 15.4619 39.5761 15.3632Z" fill="black"/>
</g>
<defs>
<clipPath id="clip0_858_58991">
<rect width="60" height="27.5974" fill="white"/>
</clipPath>
</defs>
</svg>
