<svg width="101" height="24" viewBox="0 0 101 24" fill="none" xmlns="http://www.w3.org/2000/svg">
<path d="M6 8L2 12L6 16M18.2 8L22.2 12L18.2 16" stroke="#11FFB7" stroke-width="2.6" stroke-linecap="round" stroke-linejoin="round"/>
<path d="M13.8317 7.98193L10.0391 16.0179" stroke="#11FFB7" stroke-width="2.8" stroke-linecap="round" stroke-linejoin="round"/>
<path d="M33.85 5.364C35.182 5.364 36.346 5.628 37.342 6.156C38.338 6.684 39.106 7.428 39.646 8.388C40.198 9.336 40.474 10.434 40.474 11.682C40.474 12.918 40.198 14.016 39.646 14.976C39.106 15.936 38.332 16.68 37.324 17.208C36.328 17.736 35.17 18 33.85 18H29.116V5.364H33.85ZM33.652 15.336C34.816 15.336 35.722 15.018 36.37 14.382C37.018 13.746 37.342 12.846 37.342 11.682C37.342 10.518 37.018 9.612 36.37 8.964C35.722 8.316 34.816 7.992 33.652 7.992H32.194V15.336H33.652ZM45.2721 7.83V10.386H49.3941V12.762H45.2721V15.534H49.9341V18H42.1941V5.364H49.9341V7.83H45.2721ZM63.7944 5.364L59.3124 18H55.4604L50.9784 5.364H54.2544L57.3864 14.904L60.5364 5.364H63.7944ZM68.1588 15.624H72.1908V18H65.0808V5.364H68.1588V15.624ZM79.635 18.126C78.447 18.126 77.355 17.85 76.359 17.298C75.375 16.746 74.589 15.978 74.001 14.994C73.425 13.998 73.137 12.882 73.137 11.646C73.137 10.41 73.425 9.3 74.001 8.316C74.589 7.332 75.375 6.564 76.359 6.012C77.355 5.46 78.447 5.184 79.635 5.184C80.823 5.184 81.909 5.46 82.893 6.012C83.889 6.564 84.669 7.332 85.233 8.316C85.809 9.3 86.097 10.41 86.097 11.646C86.097 12.882 85.809 13.998 85.233 14.994C84.657 15.978 83.877 16.746 82.893 17.298C81.909 17.85 80.823 18.126 79.635 18.126ZM79.635 15.318C80.643 15.318 81.447 14.982 82.047 14.31C82.659 13.638 82.965 12.75 82.965 11.646C82.965 10.53 82.659 9.642 82.047 8.982C81.447 8.31 80.643 7.974 79.635 7.974C78.615 7.974 77.799 8.304 77.187 8.964C76.587 9.624 76.287 10.518 76.287 11.646C76.287 12.762 76.587 13.656 77.187 14.328C77.799 14.988 78.615 15.318 79.635 15.318ZM96.1974 9.36C95.9694 8.94 95.6394 8.622 95.2074 8.406C94.7874 8.178 94.2894 8.064 93.7134 8.064C92.7174 8.064 91.9194 8.394 91.3194 9.054C90.7194 9.702 90.4194 10.572 90.4194 11.664C90.4194 12.828 90.7314 13.74 91.3554 14.4C91.9914 15.048 92.8614 15.372 93.9654 15.372C94.7214 15.372 95.3574 15.18 95.8734 14.796C96.4014 14.412 96.7854 13.86 97.0254 13.14H93.1194V10.872H99.8154V13.734C99.5874 14.502 99.1974 15.216 98.6454 15.876C98.1054 16.536 97.4154 17.07 96.5754 17.478C95.7354 17.886 94.7874 18.09 93.7314 18.09C92.4834 18.09 91.3674 17.82 90.3834 17.28C89.4114 16.728 88.6494 15.966 88.0974 14.994C87.5574 14.022 87.2874 12.912 87.2874 11.664C87.2874 10.416 87.5574 9.306 88.0974 8.334C88.6494 7.35 89.4114 6.588 90.3834 6.048C91.3554 5.496 92.4654 5.22 93.7134 5.22C95.2254 5.22 96.4974 5.586 97.5294 6.318C98.5734 7.05 99.2634 8.064 99.5994 9.36H96.1974Z" fill="white"/>
</svg>
