<svg width="67" height="32" viewBox="0 0 67 32" fill="none" xmlns="http://www.w3.org/2000/svg">
<g clip-path="url(#clip0_706_29717)">
<path d="M66.601 21.4148L0.000976562 31.9199V10.5051L66.601 0V21.4148Z" fill="#11FFB7"/>
<path d="M5.38477 14.6189L9.26082 14.0125C12.7677 13.4588 15.2331 15.5418 15.2331 19.0619C15.2331 22.582 12.7677 25.4429 9.26082 25.9966L5.38477 26.6031V14.6189ZM12.8336 19.431C12.8336 17.0316 11.4362 15.7396 9.20809 16.0955L7.78423 16.3328V24.1113L9.20809 23.9004C11.4362 23.5444 12.8336 21.8305 12.8336 19.4179V19.431Z" fill="#18191B"/>
<path d="M16.0347 21.0389C16.0347 18.7186 17.6167 16.8333 19.858 16.4773C22.3629 16.0818 23.1671 18.0067 23.1935 18.0726C23.6681 18.9295 23.5363 20.3798 23.5363 20.6566L18.2627 21.4872C18.4737 22.1728 19.1988 22.476 19.858 22.3705C20.7018 22.2387 21.1236 21.8168 21.2818 21.4872L23.2594 21.9223C22.8903 22.8847 21.7828 24.0581 19.8448 24.3613C17.6035 24.7172 16.0215 23.3461 16.0215 21.0389H16.0347ZM21.3478 19.6019C21.1632 18.7845 20.6622 18.3231 19.858 18.4417C19.067 18.5604 18.4869 19.1537 18.2891 20.0765L21.3478 19.5887V19.6019Z" fill="#18191B"/>
<path d="M29.1544 22.8844L27.1768 23.2009L23.8545 15.8706L26.4649 15.4619L28.1524 19.839L29.9191 14.9082L32.5558 14.4863L29.1412 22.8844H29.1544Z" fill="#18191B"/>
<path d="M33.9531 10.1109L38.7652 9.34628C41.2174 8.96395 42.9445 10.3483 42.9445 12.7214C42.9445 15.0944 41.2174 17.0193 38.7652 17.4148L36.3658 17.7971V21.7127L33.9663 22.0951V10.1109H33.9531ZM40.5319 13.1037C40.5319 11.9435 39.7672 11.2448 38.6861 11.4161L36.3658 11.7853V15.7405L38.6861 15.3713C39.7804 15.1999 40.5319 14.2507 40.5319 13.1037Z" fill="#18191B"/>
<path d="M45.149 8.48772C45.8741 8.36907 46.4014 8.81732 46.4014 9.54243C46.4014 10.2675 45.8741 10.874 45.149 10.9927C44.4238 11.1113 43.8965 10.6631 43.8965 9.93795C43.8965 9.21283 44.4238 8.60638 45.149 8.48772ZM46.3487 12.2847V20.1423L43.9492 20.5246V12.667L46.3487 12.2847Z" fill="#18191B"/>
<path d="M52.6725 16.1887L54.2282 17.639C53.5822 18.4959 52.3429 19.2342 51.3277 19.3924C49.0074 19.7616 47.3594 18.3904 47.3594 16.0833C47.3594 13.7761 49.0074 11.8644 51.3277 11.5085C52.4615 11.3239 53.5294 11.6667 54.2282 12.3522L52.6725 14.2771C52.2506 13.9079 51.7232 13.7102 51.2882 13.7893C50.3257 13.9475 49.772 14.6462 49.772 15.7273C49.772 16.8084 50.3257 17.3094 51.2882 17.1644C51.7232 17.0984 52.2638 16.7293 52.6725 16.2151V16.1887Z" fill="#18191B"/>
<path d="M57.6856 12.8658L59.7423 10.1895L62.9855 9.67535L59.8214 13.7492L62.6823 17.5989L59.8082 18.0471L58.0943 15.7531L57.6856 16.3068V18.3767L55.2861 18.759V7.19679L57.6856 6.81445V12.8658Z" fill="#18191B"/>
</g>
<defs>
<clipPath id="clip0_706_29717">
<rect width="66.6" height="31.9199" fill="white"/>
</clipPath>
</defs>
</svg>
