<svg width="20" height="20" viewBox="0 0 20 20" fill="none" xmlns="http://www.w3.org/2000/svg">
<path d="M18.0889 10.2461L16.9102 11.4238L15.833 10.3467V11.6719C15.8328 13.9729 13.9671 15.8379 11.666 15.8379H4.99902V14.1719H11.666C13.0466 14.1719 14.1658 13.0524 14.166 11.6719V10.3467L13.0889 11.4238L11.9102 10.2461L14.999 7.15625L18.0889 10.2461ZM14.999 5.83789H8.33301C6.9524 5.83789 5.83318 6.95733 5.83301 8.33789V9.66309L6.91016 8.58594L8.08887 9.76367L5 12.8535L1.91016 9.76367L3.08887 8.58594L4.16602 9.66211V8.33789C4.16619 6.03685 6.03193 4.17188 8.33301 4.17188H14.999V5.83789Z" fill="#272A2D"/>
</svg>
