<svg width="88" height="88" viewBox="0 0 88 88" fill="none" xmlns="http://www.w3.org/2000/svg">
<path d="M36.5988 1.39941C54.8242 1.39941 69.5988 16.174 69.5988 34.3994C69.5986 52.6247 54.8241 67.3994 36.5988 67.3994C18.3736 67.3992 3.59888 52.6246 3.59875 34.3994C3.59875 16.1742 18.3736 1.39966 36.5988 1.39941ZM36.5997 14.5986C25.6645 14.5986 16.7999 23.4642 16.7999 34.3994C16.8001 45.3345 25.6646 54.1992 36.5997 54.1992C47.5348 54.1991 56.3994 45.3344 56.3995 34.3994C56.3995 23.4643 47.5349 14.5988 36.5997 14.5986Z" fill="#EDEEF0"/>
<rect x="65.7334" y="58.5986" width="26.4" height="13.2" rx="3.3" transform="rotate(45 65.7334 58.5986)" fill="#C8E0D9"/>
</svg>
