<svg xmlns="http://www.w3.org/2000/svg" xml:space="preserve" width="878.915608741" height="113.776566266" viewBox="0 0 1279.9999 165.69738"><path d="M0 0h1.711c4.54 0 8.409 2.236 8.409 7.37 0 4.709-3.445 7.366-8.329 7.366H0Zm-7.595 20.54H3.181c8.152 0 14.854-5.769 14.854-13.17 0-7.417-6.751-13.161-14.854-13.161H-7.595Z" style="fill:#ff6f00;fill-opacity:1;fill-rule:nonzero;stroke:none" transform="matrix(5.97538 0 0 -5.97538 45.383 126.856)"/><path d="M0 0v-4.407h8.57v-5.789H0v-4.54h9.034v-5.791H-7.599V5.804H9.034V0Z" style="fill:#ff6f00;fill-opacity:1;fill-rule:nonzero;stroke:none" transform="matrix(5.97538 0 0 -5.97538 210.348 38.804)"/><path d="m0 0 7.099 16h8.259L2.872-10.331h-5.895L-15.305 16h8.249z" style="fill:#ff6f00;fill-opacity:1;fill-rule:nonzero;stroke:none" transform="matrix(5.97538 0 0 -5.97538 356.304 99.73)"/><path d="M0 0c-1.392 1.046-3.171 1.737-5.041 1.737-1.39 0-3.255-.727-3.255-2.195 0-1.543 2.056-2.13 3.376-2.515l1.939-.521c4.074-1.083 7.213-2.936 7.213-7.194 0-2.621-.699-5.31-3.028-7.098-2.283-1.735-5.349-2.475-8.3-2.475-3.68 0-7.29 1.119-10.271 2.999l3.25 5.526c1.911-1.507 4.153-2.718 6.756-2.718 1.785 0 3.684.797 3.684 2.647 0 1.91-2.995 2.586-4.619 3.005-4.765 1.219-7.916 2.342-7.916 7.43 0 5.349 4.244 8.841 10.09 8.841 2.951 0 6.551-.844 9.15-2.173z" style="fill:#ff6f00;fill-opacity:1;fill-rule:nonzero;stroke:none" transform="matrix(5.97538 0 0 -5.97538 546.034 44.63)"/><path d="M505.71 77.979h-7.608v26.331h7.608z" style="fill:#ff6f00;fill-opacity:1;fill-rule:nonzero;stroke:none" transform="matrix(5.97538 0 0 -5.97538 -2392.798 627.417)"/><path d="M0 0c-1.395 1.046-3.185 1.737-5.034 1.737-1.407 0-3.261-.727-3.261-2.195 0-1.543 2.055-2.13 3.371-2.515l1.939-.521c4.073-1.083 7.212-2.936 7.212-7.194 0-2.621-.703-5.31-3.03-7.098-2.287-1.735-5.343-2.475-8.293-2.475-3.677 0-7.291 1.119-10.274 2.999l3.259 5.526c1.893-1.507 4.15-2.718 6.746-2.718 1.782 0 3.677.797 3.677 2.647 0 1.91-2.988 2.586-4.607 3.005-4.77 1.219-7.911 2.342-7.911 7.43 0 5.349 4.227 8.841 10.078 8.841 2.943 0 6.552-.844 9.154-2.173z" style="fill:#ff6f00;fill-opacity:1;fill-rule:nonzero;stroke:none" transform="matrix(5.97538 0 0 -5.97538 745.293 44.63)"/><path d="M0 0h-7.597v20.527h-6.28v5.804H6.282v-5.804H0Z" style="fill:#ff6f00;fill-opacity:1;fill-rule:nonzero;stroke:none" transform="matrix(5.97538 0 0 -5.97538 852.314 161.46)"/><path d="M0 0v-4.407h8.566v-5.789H0v-4.54h9.038v-5.791H-7.595V5.804H9.038V0Z" style="fill:#ff6f00;fill-opacity:1;fill-rule:nonzero;stroke:none" transform="matrix(5.97538 0 0 -5.97538 942.47 38.804)"/><path d="M0 0h.729c2.487 0 5.278.422 5.278 3.294 0 2.849-2.791 3.275-5.278 3.275H0Zm16.708-14.516h-9.46L.068-4.394H0v-10.122h-7.603v26.331H3.756c5.782 0 10.168-2.498 10.168-8.109 0-3.637-2.264-6.771-6.403-7.437z" style="fill:#ff6f00;fill-opacity:1;fill-rule:nonzero;stroke:none" transform="matrix(5.97538 0 0 -5.97538 1060.647 74.723)"/><path d="M0 0c-1.389 1.046-3.171 1.737-5.034 1.737-1.405 0-3.252-.727-3.252-2.195 0-1.543 2.049-2.13 3.363-2.515l1.941-.521C1.09-4.577 4.23-6.43 4.23-10.688c0-2.621-.688-5.31-3.029-7.098-2.287-1.735-5.347-2.475-8.29-2.475-3.685 0-7.287 1.119-10.28 2.999l3.256 5.526c1.91-1.507 4.153-2.718 6.749-2.718 1.782 0 3.685.797 3.685 2.647 0 1.91-2.982 2.586-4.607 3.005-4.781 1.219-7.916 2.342-7.916 7.43 0 5.349 4.223 8.841 10.082 8.841 2.949 0 6.544-.844 9.153-2.173z" style="fill:#ff6f00;fill-opacity:1;fill-rule:nonzero;stroke:none" transform="matrix(5.97538 0 0 -5.97538 1254.724 44.63)"/></svg>