<svg xmlns="http://www.w3.org/2000/svg" width="140" height="49" viewBox="0 0 140 49"><path fill="#06C755" fill-rule="evenodd" d="M109.048 48.884h28.895c1.086 0 1.967-.88 1.967-1.966v-7.305a1.972 1.972 0 0 0-1.967-1.966h-19.666V30.06h19.666c1.086 0 1.967-.88 1.967-1.967V20.79a1.973 1.973 0 0 0-1.967-1.967h-19.666v-7.585h19.666c1.086 0 1.967-.88 1.967-1.967V1.967A1.973 1.973 0 0 0 137.943 0h-28.938c-1.085 0-1.966.88-1.966 1.967v44.951c0 1.086.88 1.966 1.967 1.966h.042zM98.05 0h-7.304C89.66 0 88.78.88 88.78 1.967v26.698L68.214.891a1.967 1.967 0 0 0-.158-.203l-.013-.015a1.954 1.954 0 0 0-.119-.122l-.036-.034c-.036-.03-.07-.061-.107-.09l-.054-.04a2.664 2.664 0 0 0-.103-.071l-.06-.037-.11-.06-.062-.03-.115-.05-.064-.023a1.82 1.82 0 0 0-.119-.038l-.07-.018a1.519 1.519 0 0 0-.201-.038 1.805 1.805 0 0 0-.106-.013c-.035-.003-.07-.004-.105-.005C66.59.003 66.568 0 66.545 0h-7.264c-1.087 0-1.967.88-1.967 1.967v44.95c0 1.087.88 1.967 1.967 1.967h7.304c1.087 0 1.967-.88 1.967-1.966v-26.69l20.592 27.809a2 2 0 0 0 .507.495l.023.016c.04.026.082.051.124.075l.057.031a1.669 1.669 0 0 0 .192.088l.062.023c.044.016.09.03.135.043l.028.007c.165.044.337.07.514.07h7.265a1.967 1.967 0 0 0 1.967-1.967V1.967C100.018.88 99.138 0 98.05 0M48.324 0h-7.305c-1.086 0-1.966.88-1.966 1.967v44.95c0 1.087.88 1.967 1.966 1.967h7.305c1.086 0 1.967-.88 1.967-1.966V1.967A1.967 1.967 0 0 0 48.324 0m-17.42 48.884c1.086 0 1.966-.88 1.966-1.966v-7.305a1.972 1.972 0 0 0-1.966-1.966H11.238V1.967A1.973 1.973 0 0 0 9.27 0H1.967C.88 0 0 .88 0 1.967v44.951c0 1.086.88 1.966 1.967 1.966h28.937"/></svg>