<svg xmlns="http://www.w3.org/2000/svg" width="199.99973mm" height="199.99973mm" viewBox="0 0 199.99973 199.99973"><path d="M0 0c-4.603-19.936-18.251-33.808-30.484-30.983-12.234 2.824-18.42 21.275-13.817 41.211 4.602 19.936 18.251 33.808 30.484 30.983C-1.583 38.387 4.603 19.936 0 0m-22.151 47.213c-23.25 0-42.099-18.848-42.099-42.099 0-23.25 18.849-42.099 42.099-42.099 23.251 0 42.099 18.849 42.099 42.099 0 23.251-18.848 42.099-42.099 42.099" style="fill:#a7ce49;fill-opacity:1;fill-rule:nonzero;stroke:none" transform="matrix(2.37535 0 0 -2.37535 152.616 112.147)"/><path d="M0 0c-1.402-6.027-6.028-10.088-10.334-9.094-4.31.997-6.668 6.684-5.289 12.702 1.399 6.004 6.014 10.07 10.32 9.079C-.982 11.688 1.385 6.009 0 0" style="fill:#ee7d6d;fill-opacity:1;fill-rule:nonzero;stroke:none" transform="matrix(2.37535 0 0 -2.37535 130.36 53.202)"/></svg>