<svg xmlns="http://www.w3.org/2000/svg" viewBox="0 0 716.86 155.91"><defs><linearGradient id="a" x1="-15476.91" x2="-15476.91" y1="811.65" y2="714.21" gradientTransform="translate(15540 -714.47)" gradientUnits="userSpaceOnUse"><stop offset=".2" stop-color="#3393ff"/><stop offset="1" stop-color="#005aff"/></linearGradient><linearGradient id="b" x1="111.61" x2="111.61" y1="155.91" y2="58.46" gradientUnits="userSpaceOnUse"><stop offset=".2" stop-color="#3393ff"/><stop offset="1" stop-color="#005aff"/></linearGradient><linearGradient id="c" x1="137.28" x2="84.63" y1="133.33" y2="80.68" gradientUnits="userSpaceOnUse"><stop offset=".6" stop-color="#3393ff" stop-opacity="0"/><stop offset="1" stop-color="#0041e6"/></linearGradient></defs><path d="M210.87 129.9c-7.48-3.16-13.87-7.8-19.16-13.91l15.4-15.4c4.22 4.31 9.13 8.03 13.53 9.98s9.46 2.92 15.19 2.92c6.51 0 11.54-1.16 15.08-3.49q5.31-3.495 5.31-9.54c0-2.29-.61-4.22-1.82-5.78-1.22-1.56-3.24-2.93-6.06-4.12-2.83-1.18-6.85-2.36-12.08-3.54l-5.69-1.35c-11.74-2.85-20.52-6.83-26.35-11.93-5.83-5.11-8.75-11.48-8.75-19.12 0-6.32 1.86-12.04 5.58-17.14 3.72-5.11 8.8-9.08 15.24-11.93s13.67-4.27 21.68-4.27 15.49 1.55 22.65 4.64q10.74 4.635 18.57 13.08l-15.5 15.5c-3.58-3.82-8.04-7.29-12.19-9.2s-8.7-2.87-13.63-2.87c-5.44 0-9.8 1.08-13.1 3.23-3.29 2.15-4.94 4.97-4.94 8.44 0 1.74.52 3.21 1.56 4.43s2.72 2.31 5.05 3.28c2.32.97 5.56 1.98 9.71 3.02l5.9 1.46c13.38 3.06 23.19 7.31 29.41 12.77 6.23 5.46 9.34 12.42 9.34 20.89 0 6.74-1.9 12.73-5.69 17.98s-9.11 9.35-15.94 12.3-14.69 4.43-23.56 4.43-17.27-1.58-24.74-4.74ZM316.09 127.24c-8.29-4.93-14.83-11.74-19.61-20.43-4.78-8.68-7.18-18.31-7.18-28.87s2.39-20.36 7.18-28.97c4.78-8.61 11.32-15.39 19.61-20.32s17.49-7.4 27.6-7.4 19.51 2.47 27.8 7.4 14.81 11.71 19.56 20.32c4.75 8.62 7.13 18.27 7.13 28.97s-2.38 20.18-7.13 28.87-11.27 15.49-19.56 20.43c-8.29 4.93-17.56 7.4-27.8 7.4s-19.31-2.47-27.6-7.4m43.62-19.85c4.68-2.88 8.32-6.88 10.92-11.98 2.59-5.11 3.89-10.92 3.89-17.46s-1.28-12.45-3.84-17.56-6.2-9.08-10.92-11.93-10.04-4.27-15.97-4.27-11.32 1.42-15.97 4.27-8.31 6.83-10.97 11.93c-2.66 5.11-3.99 10.96-3.99 17.56s1.33 12.35 3.99 17.46 6.32 9.1 10.97 11.98q6.975 4.32 15.87 4.32c8.895 0 11.34-1.44 16.02-4.32M594.49 39.7h-1.13c-2.79-5.02-5.97-9.05-10.14-12.04-5.96-4.27-13.19-6.41-21.68-6.41-9.37 0-17.79 2.47-25.27 7.4s-13.33 11.71-17.54 20.32c-4.21 8.62-6.32 18.27-6.32 28.97s2.1 20.27 6.32 28.92c4.21 8.65 10.06 15.44 17.54 20.37s15.9 7.4 25.27 7.4c8.49 0 15.72-2.14 21.68-6.41 4.17-2.99 7.35-7.01 10.14-12.04h1.13v15.53h23.96V24.17h-23.96zm-13.35 67.69c-4.45 2.88-9.5 4.32-15.16 4.32s-10.7-1.44-15.11-4.32-7.89-6.89-10.41-12.04c-2.53-5.14-3.79-10.94-3.79-17.4s1.26-12.45 3.79-17.56 6-9.08 10.41-11.93 9.45-4.27 15.11-4.27 10.72 1.42 15.16 4.27c4.45 2.85 7.92 6.83 10.41 11.93 2.49 5.11 3.74 10.96 3.74 17.56s-1.25 12.35-3.74 17.46-5.96 9.1-10.41 11.98M465.52 134.64c-10.52 0-20.04-2.49-28.56-7.48s-15.22-11.79-20.11-20.41-7.33-18.22-7.33-28.8 2.44-20.37 7.33-28.91 11.59-15.31 20.11-20.3 18.04-7.48 28.56-7.48c8.3 0 16.04 1.63 23.22 4.88s14.37 8.6 19.41 14.65l-16.24 16.24c-3.11-3.78-7.5-7.23-11.95-9.12-4.44-1.89-9.26-2.83-14.44-2.83-6.08 0-11.48 1.4-16.22 4.2s-8.44 6.65-11.11 11.57c-2.67 4.91-4 10.62-4 17.12s1.33 12.21 4 17.12 6.37 8.81 11.11 11.68 10.15 4.31 16.22 4.31c5.18 0 10-.94 14.44-2.83s8.85-5.35 11.96-9.13l16.23 16.23c-5.04 6.05-12.23 11.2-19.41 14.45-7.19 3.25-14.93 4.88-23.22 4.88ZM659.52 24.17v15.84h1.13s7.41-18.2 26.97-18.2c20.85 0 29.23 15.05 29.23 15.05l-16.16 16.16s-5.76-7.64-17.03-7.64-24.13 5.23-24.13 34.43v51.9h-24.08V24.17z"/><path d="M7.16 97.44h60.7l38.98-38.98s17.56-17.5 19.34-52.67c.16-3.15-2.36-5.79-5.52-5.79H62.61c-3.41 0-6.21 2.63-6.48 6.03-.76 9.82-5.22 30.4-27.25 52.43L2.11 85.24c-4.5 4.5-1.31 12.2 5.05 12.2" style="fill:url(#a)"/><path d="M167.54 58.46h-60.7L67.86 97.44s-17.56 17.5-19.34 52.67c-.16 3.15 2.36 5.79 5.52 5.79h58.05c3.41 0 6.21-2.63 6.48-6.03.76-9.82 5.22-30.4 27.25-52.43l26.78-26.78c4.5-4.5 1.31-12.2-5.05-12.2Z" style="fill:url(#b)"/><path d="M167.54 58.46h-60.7L67.86 97.44s-17.56 17.5-19.34 52.67c-.16 3.15 2.36 5.79 5.52 5.79h58.05c3.33 0 6.22-2.71 6.48-6.03.76-9.82 5.22-30.4 27.25-52.43l26.78-26.78c4.5-4.5 1.31-12.2-5.05-12.2Z" style="fill:url(#c)"/></svg>