<svg xmlns="http://www.w3.org/2000/svg" width="398.23999" height="127.958" viewBox="0 0 105.36766 33.855555"><g fill="#FA0050"><path d="M24.882 27.431v-3.868l-5.76.781v3.807c-.939.057-1.883.096-2.838.096-.953 0-1.897-.039-2.837-.096v-3.807l-5.759-.78v3.867a46.224 46.224 0 0 1-5.921-1.53L0 31.226a51.659 51.659 0 0 0 16.284 2.63c5.693 0 11.162-.932 16.285-2.63l-1.766-5.323a46.342 46.342 0 0 1-5.921 1.53M16.286 5.675a5.707 5.707 0 0 1 5.707 5.709 5.708 5.708 0 0 1-11.417 0 5.709 5.709 0 0 1 5.71-5.71m0 17.091c6.285 0 11.38-5.096 11.38-11.381C27.667 5.096 22.572 0 16.287 0 9.999 0 4.902 5.096 4.902 11.384c0 6.285 5.097 11.381 11.384 11.381M60.528 33.138l5.928.004V.338L60.528.332zM38.101 2.056v5.679h10.884v.927c0 1.639.225 4.347-1.422 6.707-1.757 2.522-6.265 5.668-10.166 7.771l2.555 4.995c4.512-2.353 11.246-6.961 13.04-10.296 1.8-3.345 2.015-5.627 2.015-12.07l-.015-3.705zM103.6 25.902a46.224 46.224 0 0 1-5.92 1.53v-3.869l-5.76.781v3.807c-.94.057-1.883.096-2.837.096-.955 0-1.899-.039-2.837-.096v-3.807l-5.76-.78v3.867c-2.023-.384-4-.893-5.922-1.53L72.8 31.225a51.607 51.607 0 0 0 16.284 2.632 51.62 51.62 0 0 0 16.285-2.632zM89.083 5.675a5.709 5.709 0 1 1 0 11.417 5.71 5.71 0 1 1 0-11.417m0 17.09c6.287 0 11.381-5.096 11.381-11.381C100.464 5.096 95.37 0 89.084 0 82.796 0 77.7 5.096 77.7 11.384c0 6.285 5.096 11.381 11.382 11.381"/></g></svg>